<mxfile host="app.diagrams.net" modified="2023-08-21T07:39:27.203Z" agent="Mozilla/5.0 (Windows NT 10.0; Win64; x64) AppleWebKit/537.36 (KHTML, like Gecko) Chrome/116.0.0.0 Safari/537.36" etag="H6XGI7DyDX3zWyYZip8f" version="21.6.6" type="device">
  <diagram name="Страница 1" id="1p1wD37p-6cpfJkmOF1o">
    <mxGraphModel dx="2154" dy="1038" grid="1" gridSize="10" guides="1" tooltips="1" connect="1" arrows="1" fold="1" page="1" pageScale="1" pageWidth="827" pageHeight="1169" math="0" shadow="0">
      <root>
        <mxCell id="0" />
        <mxCell id="1" parent="0" />
        <mxCell id="rqjYyDjg5MgcRPlBjVcD-5" style="edgeStyle=orthogonalEdgeStyle;rounded=0;orthogonalLoop=1;jettySize=auto;html=1;entryX=0.5;entryY=0;entryDx=0;entryDy=0;" edge="1" parent="1" source="rqjYyDjg5MgcRPlBjVcD-1" target="rqjYyDjg5MgcRPlBjVcD-2">
          <mxGeometry relative="1" as="geometry" />
        </mxCell>
        <mxCell id="rqjYyDjg5MgcRPlBjVcD-1" value="start" style="rounded=1;whiteSpace=wrap;html=1;" vertex="1" parent="1">
          <mxGeometry x="314" y="30" width="199" height="100" as="geometry" />
        </mxCell>
        <mxCell id="rqjYyDjg5MgcRPlBjVcD-6" style="edgeStyle=orthogonalEdgeStyle;rounded=0;orthogonalLoop=1;jettySize=auto;html=1;entryX=0.5;entryY=0;entryDx=0;entryDy=0;" edge="1" parent="1" source="rqjYyDjg5MgcRPlBjVcD-2" target="rqjYyDjg5MgcRPlBjVcD-3">
          <mxGeometry relative="1" as="geometry" />
        </mxCell>
        <mxCell id="rqjYyDjg5MgcRPlBjVcD-2" value="&lt;i&gt;for&lt;/i&gt;&lt;br&gt;string[] array" style="rounded=0;whiteSpace=wrap;html=1;" vertex="1" parent="1">
          <mxGeometry x="321" y="200" width="186" height="90" as="geometry" />
        </mxCell>
        <mxCell id="rqjYyDjg5MgcRPlBjVcD-7" style="edgeStyle=orthogonalEdgeStyle;rounded=0;orthogonalLoop=1;jettySize=auto;html=1;entryX=0.5;entryY=0;entryDx=0;entryDy=0;" edge="1" parent="1" source="rqjYyDjg5MgcRPlBjVcD-3" target="rqjYyDjg5MgcRPlBjVcD-4">
          <mxGeometry relative="1" as="geometry" />
        </mxCell>
        <mxCell id="rqjYyDjg5MgcRPlBjVcD-3" value="string[] array" style="shape=document;whiteSpace=wrap;html=1;boundedLbl=1;" vertex="1" parent="1">
          <mxGeometry x="326" y="350" width="176" height="100" as="geometry" />
        </mxCell>
        <mxCell id="rqjYyDjg5MgcRPlBjVcD-4" value="end" style="rounded=1;whiteSpace=wrap;html=1;" vertex="1" parent="1">
          <mxGeometry x="329" y="510" width="170" height="110" as="geometry" />
        </mxCell>
      </root>
    </mxGraphModel>
  </diagram>
</mxfile>
